<svg xmlns="http://www.w3.org/2000/svg" width="510" height="511" fill="none" viewBox="0 0 510 511" id="menu"><path fill="#000" fill-rule="evenodd" d="M341 171H291V221H341V171zM356 166C356 160.477 351.523 156 346 156H286C280.477 156 276 160.477 276 166V226C276 231.523 280.477 236 286 236H346C351.523 236 356 231.523 356 226V166zM221 171H171V221H221V171zM236 166C236 160.477 231.523 156 226 156H166C160.477 156 156 160.477 156 166V226C156 231.523 160.477 236 166 236H226C231.523 236 236 231.523 236 226V166zM221 291H171V341H221V291zM236 286C236 280.477 231.523 276 226 276H166C160.477 276 156 280.477 156 286V346C156 351.523 160.477 356 166 356H226C231.523 356 236 351.523 236 346V286z" clip-rule="evenodd"></path></svg>