<svg xmlns="http://www.w3.org/2000/svg" viewBox="0 0 32 32" id="tag"><path fill="#3c3b42" d="M22.315 14.388a.5.5 0 0 1-.118-.986c.858-.208 1.734-.726 2.467-1.459a.5.5 0 0 1 .707.707c-.86.861-1.904 1.473-2.938 1.724a.476.476 0 0 1-.118.014z"></path><path fill="#92ca62" d="m21.947 9.134-1.545-1.545a1.997 1.997 0 0 0-1.547-.581l-3.648.243a2 2 0 0 0-1.281.581l-9.061 9.061a2 2 0 0 0 0 2.828l4.95 4.95a2 2 0 0 0 2.828 0l9.061-9.061c.343-.343.549-.798.581-1.281l.243-3.648a1.997 1.997 0 0 0-.581-1.547zm-2.54 2.365a.999.999 0 1 1-1.414-1.414.999.999 0 1 1 1.414 1.414z"></path><path fill="#71bc58" d="M17.74 10.589a.973.973 0 0 1 .253-.504.972.972 0 0 1 .492-.251.982.982 0 0 0-.253-.91.999.999 0 1 0-1.414 1.414c.25.251.599.323.922.251zm4.207-1.455-1.545-1.545c-.024-.024-.052-.04-.077-.062l.446.446c.408.408.62.972.581 1.547l-.243 3.648a2 2 0 0 1-.581 1.281l-9.061 9.061a1.995 1.995 0 0 1-2.747.067l1.094 1.094a2 2 0 0 0 2.828 0l9.061-9.061c.343-.343.549-.798.581-1.281l.243-3.648a1.993 1.993 0 0 0-.58-1.547z"></path><path fill="#3c3b42" d="M18.7 12.291a1.497 1.497 0 0 1-1.5-1.499 1.501 1.501 0 1 1 2.56 1.061 1.494 1.494 0 0 1-1.06.438zm0-1.999a.498.498 0 0 0-.354.853.5.5 0 0 0 .707 0 .501.501 0 0 0-.353-.853z"></path><path fill="#3c3b42" d="M23.81 13.753a.501.501 0 0 1-.261-.926c.396-.243.771-.54 1.115-.884 1.533-1.533 2.019-3.638 1.061-4.596-.959-.958-3.064-.471-4.597 1.061a5.742 5.742 0 0 0-1.262 1.861.5.5 0 1 1-.925-.377 6.75 6.75 0 0 1 1.48-2.191c1.98-1.982 4.62-2.45 6.011-1.061 1.388 1.388.922 4.027-1.061 6.01a7.009 7.009 0 0 1-1.301 1.029.485.485 0 0 1-.26.074z"></path><path fill="#b6d889" d="M8.754 18.454a.5.5 0 0 1-.354-.853l4.95-4.95a.5.5 0 0 1 .707.707l-4.95 4.95a.498.498 0 0 1-.353.146zm2.828 2.828a.5.5 0 0 1-.354-.853l4.95-4.95a.5.5 0 0 1 .707.707l-4.95 4.95a.498.498 0 0 1-.353.146z"></path></svg>