<svg xmlns="http://www.w3.org/2000/svg" width="2in" height="2in" fill-rule="evenodd" clip-rule="evenodd" image-rendering="optimizeQuality" shape-rendering="geometricPrecision" text-rendering="geometricPrecision" viewBox="0 0 2000 2000" id="tools"><path fill="#174271" d="M1787 1600l-1092 -1092c-4,-4 -6,-10 -5,-15 14,-78 -11,-158 -67,-214 -46,-46 -107,-72 -172,-72 -9,0 -18,1 -27,2l148 148c3,3 5,7 5,12 0,4 -2,8 -5,11l-192 192c-3,3 -7,5 -11,5 -5,0 -9,-2 -12,-5l-148 -148c-9,73 17,146 70,199 45,46 107,71 172,71 14,0 28,-1 42,-4 1,0 2,0 3,0 4,0 8,2 12,5l520 520 0 1 1 0 571 571c25,25 58,39 94,39 35,0 68,-14 93,-39 25,-25 39,-58 39,-93 0,-36 -14,-69 -39,-94z"></path><path fill="#9ab8d4" d="M1227 993l381-381c3-2 5-3 8-4l162-44 57-211-155-154-211 56-43 162c-1 3-3 6-5 8l-381 381 187 187zm358-423c-4 0-9-1-12-5l-105-105c-4-4-6-10-4-16l38-144c2-6 6-10 12-12l144-38c6-2 12 0 16 4l105 105c5 5 6 11 5 16l-39 144c-1 6-6 11-12 12l-144 39c-1 0-3 0-4 0zM993 1227l-187-187-381 381c-2 2-5 4-8 5l-162 43-56 211 154 155 211-57 44-162c1-3 2-5 4-8l381-381zm-533 241l105 105c5 4 6 11 5 16l-39 144c-1 6-6 11-12 12l-144 39c-1 0-2 0-4 0-4 0-8-2-12-5l-105-105c-4-4-6-10-4-16l38-144c2-6 6-10 12-12l144-38c6-2 12 0 16 4z"></path><path d="M1568 554c-4,0 -8,-2 -11,-5l-106 -106c-4,-4 -6,-10 -4,-16l38 -144c2,-5 6,-10 12,-11l144 -39c6,-2 12,0 16,4l106 106c4,4 6,10 4,16l-39 144c-1,6 -6,10 -11,12l-144 38c-2,1 -3,1 -5,1zm109 1289c-44,0 -86,-18 -117,-49l-560 -560 -378 378 -45 167c-1,6 -6,11 -11,12l-230 62c-2,0 -3,0 -4,0 -5,0 -9,-1 -12,-5l-168 -168c-5,-4 -6,-10 -5,-16l62 -230c1,-5 6,-10 12,-11l167 -45 378 -378 -293 -292c-13,2 -26,3 -39,3 -74,0 -143,-29 -196,-81 -68,-69 -96,-167 -73,-261 1,-6 6,-11 12,-12 5,-2 12,0 16,4l159 159 168 -168 -159 -159c-4,-4 -6,-11 -4,-16 1,-6 6,-11 12,-12 21,-5 43,-8 65,-8 74,0 143,29 196,81 61,62 90,149 78,235l292 293 378 -378 45 -167c1,-6 6,-11 11,-12l230 -62c6,-1 12,0 16,5l168 168c5,4 6,10 5,16l-62 230c-1,5 -6,10 -12,11l-167 45 -378 378 560 560c31,31 49,73 49,117 0,44 -18,86 -49,117 -31,31 -73,49 -117,49zm-701 -632l-187 -187 -381 381c-2,2 -4,3 -7,4l-162 43 -57 212 155 154 211 -57 43 -162c1,-3 2,-5 4,-7l381 -381zm48 -422l187 187 381 -381c2,-2 4,-3 7,-4l162 -43 57 -212 -154 -154 -212 57 -43 162c-1,3 -2,5 -4,7l-381 381zm-545 -116c5,0 9,2 12,5l521 521 0 0 0 0 571 572c25,25 59,38 94,38 35,0 69,-13 94,-38 25,-25 38,-59 38,-94 0,-35 -13,-69 -38,-94l-1093 -1092c-4,-4 -5,-9 -4,-15 13,-78 -12,-158 -68,-214 -46,-46 -107,-71 -172,-71 -9,0 -18,0 -27,1l148 148c3,3 5,7 5,12 0,4 -2,9 -5,12l-191 191c-3,3 -8,5 -12,5 -5,0 -9,-2 -12,-5l-148 -148c-8,73 17,146 70,199 46,46 107,71 172,71 14,0 28,-1 42,-3 1,-1 2,-1 3,-1zm-124 1095c-5,0 -9,-2 -12,-5l-106 -106c-4,-4 -6,-10 -4,-16l39 -144c1,-6 6,-10 11,-12l144 -38c6,-2 12,0 16,4l106 106c4,4 6,10 4,16l-38 144c-2,5 -6,10 -12,11l-144 39c-2,0 -3,1 -4,1zm-87 -127l91 91 126 -33 33 -126 -91 -91 -126 33 -33 126zm1214 -1214l91 91 126 -33 33 -126 -91 -91 -126 33 -33 126z"></path></svg>